<?xml version="1.0" encoding="utf-8"?>
<!-- Generator: Adobe Illustrator 27.5.0, SVG Export Plug-In . SVG Version: 6.00 Build 0)  -->
<svg version="1.1" id="Content" xmlns="http://www.w3.org/2000/svg" xmlns:xlink="http://www.w3.org/1999/xlink" x="0px" y="0px"
	 viewBox="0 0 680.315 481.89" style="enable-background:new 0 0 680.315 481.89;" xml:space="preserve">
<g>
	<path d="M588.407,205.969c-6.25,2.5-17,6.25-17,6.25s18.269,36.48-12.5,52.5c-30.25,15.75-60-38.25-63.75-49.5
		c27-4.5,42.5-25,34.5-36s-26-8-57,33c12.5-32,42.75-75,51.75-85.75c-9.25-5.5-15.5-11.5-24.75,2.25
		c-7.117,10.58-21.933,37.084-33.508,62.682c-11.46,17.811-27.36,37.868-30.159,36.402c-3.5-1.834,4.834-14.334,10.334-24.858
		c5.5-10.524,7.166-20.976-3.834-25.642c-11-4.667-31.166,19.166-31.166,19.166s4-10.833-6.834-15.603
		c-10.833-4.77-28,15.603-43.666,35.603c-15.667,20-20.667,12.334-13.334-0.5c8.821-15.437,22.167-26.666,22.167-26.666
		c-6.228-6.027-11.607-5.209-16.358-1.896c-0.827-4.271-4.807-9.679-21.142-4.271c-19.424,6.431-30.678,21.747-34.994,34.316
		c-9.355,8.636-20.372,14.834-23.506,13.267c-4.5-2.25,14-29.25,18.5-36.5s-2.25-17-12.75-12c-13.545,6.45-31.75,23.75-31.75,23.75
		s8.447-20.124,36.643-63.16c47.329,5.331,57.69-16.84,57.69-16.84s-0.833-0.5-1.833-1.75c-8.884,6.735-24.927,7.222-46.738,4.956
		c59.048-85.662,114.251-97.804,155.738-75.956c42.25,22.25,24.25,90-18.25,93.5c-44.42,3.658-58.5-35.75-58.5-35.75l-14.5,9.5
		c0,0,12.198,21.946,35.75,30c57.75,19.75,86.25-22.5,91.5-47.25c5.218-24.597-14.5-74.5-82.25-66.75
		c-64.18,7.342-107.043,63.811-125.196,90.782c-12.618-1.729-26.69-3.981-42.054-6.282c-26.841-4.02-59.018-10.952-84.5-4.5
		c-23.649,5.988-41,24.5-43.25,43.25c-6.683,55.695,47.75,48.75,47.75,48.75v-16c-49.75,4.75-45.42-45.807-22.5-59
		c18.755-10.795,63.505-5.374,109.923,2.432c-8.088,7.064-19.062,19.361-26.173,34.068c-11,22.75-30.624,65.693-49,99.75
		c-15.727,29.148-45.048,37.599-51,23.75c-6.243-14.526,13-20.5,13-20.5s-4.25-6-9-11.25c-25.25,17.25-14.497,56.571,27,40.5
		c43.25-16.75,67-85.25,82.5-122.25c9.221-22.011,17.91-35.172,23.437-42.226c5.137,0.894,10.271,1.802,15.371,2.709
		c-16.167,26.243-37.802,66.8-41.808,77.205c-4.5,11.688-5.75,13.562,6.75,23.288c9.25-14.775,18-28.476,40.25-46.476
		c-12,16.5-24.75,36.75-12.75,46.476c8.978,7.276,25.788-4.295,33.688-10.587c1.849,10.811,15.307,18.598,34.613-4.698
		c-0.615,5.952,1.028,11.296,6.866,14.476c16.833,9.166,37.667-26.833,53-43.5c6.82-7.414,11.666-8.167,8.5-1.167
		c-3.446,7.617-13.752,25.856-15.5,28.667c-6.251,10.052-1.5,12.833,7.5,15.667c3.5-8.5,22-32.167,30.833-41
		c8.833-8.834,17.167-14.334,11.833-4.667c-5.333,9.667-21.833,42.333-9.333,46.809c10.14,3.63,21.147-5.664,29.595-15.82
		c-4.124,16.06,1.64,17.125,9.155,22.344c0,0,4.423-15.914,17.702-34.129c7.857,32.43,33.358,62.398,65.048,63.129
		C577.657,277.219,600.657,243.969,588.407,205.969z M334.594,211.41c-6.614,8.064-17.314,19.787-21.77,17.226
		c-2.695-1.55,2.611-17.245,11.487-26.333c10.213-10.459,23.247-15.051,25.482-11.958
		C342.657,196.136,337.88,204.824,334.594,211.41z M496.657,194.719c28.98-26.77,36.725,6.784-14.329,15.673
		C486.35,205.191,491.086,199.865,496.657,194.719z"/>
	<path d="M495.824,392.969c-51.59,38.935-147.39-6.766-215.474-28.287c27.313-44.574,51.557-96.463,51.557-96.463
		s-11.083,0.75-16.5,1c-4.417,11.917-49.26,68.518-50.25,64.5c-4.167-16.917,24-68,24-68s-10.682-0.444-14.667,2.583
		c-9.008,6.845-28.333,51-24,67.334c4.333,16.333,19,8,39.666-15c-3.626,5.507-12.721,21.543-24.009,39.762
		c-32.474-9.431-67.663-17.254-94.491-14.429c-28.238,2.975-47.244,17.954-42.167,43.667c12.309,62.338,70.666,62,108.333,30.666
		c10.314-8.579,22.034-23.869,33.616-41.542c43.42,13.099,89.415,29.136,124.385,38.876c73,20.333,103-21.667,103-21.667
		S497.49,394.969,495.824,392.969z M212.157,428.636c-33.314,20.031-58.666-11-68.666-29s-10.651-43.44,28.667-42.334
		c21.818,0.614,52.221,7.761,85.03,17.244C242.216,397.621,225.188,420.801,212.157,428.636z"/>
	<path d="M386.157,279.719v-5.375c0,0-25.125-13.625-53.25,13.5c-28.567,27.552-20.75,67.5,7.25,62.25
		c15.274-2.864,28.231-16.219,36.499-29.754c3.483,0.267,6.902,0.022,9.777-0.691c-3.344,12.093-1.406,22.098,4.224,25.82
		c15.125,10,43.125-30.125,43.125-30.125s-15.125,39.75,10.625,47.5c26.594,8.004,53.125-33,53.125-33s-13.5-4-16.375-5.375
		c0,0.375-13.793,24.253-28.5,28.896c-15.375,4.854-18.125-12.271-8.125-31.896s26.375-40,26.375-40l-20.25-2
		c0,0-29.125,41.205-38.375,49.125c-20.589,17.628-18,4-11.5-9.5c7.092-14.73,28.75-41.625,28.75-41.625h-19.875
		c-4.792,5.018-13.219,18.045-19.182,31.421c-2.114,1.19-5.081,2.287-9.031,2.519c3.702-8.008,5.463-15.232,4.713-19.315
		c-2.25-12.25-19.625-15.875-28.25,6.25c-2.801,7.185-1.038,12.471,2.903,16.068c-8.586,12.673-20.292,26.224-29.903,22.807
		C319.657,333.219,347.907,267.844,386.157,279.719z"/>
</g>
</svg>
